<svg version="1.1" id="Layer_1" xmlns="http://www.w3.org/2000/svg" xmlns:xlink="http://www.w3.org/1999/xlink" x="0px" y="0px"
	 width="100%" viewBox="0 0 313 314" enable-background="new 0 0 313 314" xml:space="preserve">
<path fill="#F8F9F8" opacity="1.000000" stroke="none" 
	d="
M313.730408,144.754944 
	C314.000000,145.750000 314.000000,146.500000 314.000000,147.625000 
	C311.932678,150.932877 310.825165,155.269684 305.370422,153.535797 
	C304.085144,152.451752 303.066742,152.007599 301.645996,153.336517 
	C301.153534,153.650772 300.943207,153.768967 300.388855,154.037598 
	C298.750183,154.575439 297.494629,155.103409 295.693695,155.319183 
	C255.498993,155.493668 215.750031,155.454544 175.561310,155.362518 
	C173.741028,155.274460 172.486908,154.691071 170.807220,154.302216 
	C170.217590,154.165802 169.988281,154.102112 169.429413,153.925568 
	C168.473892,153.574646 167.861252,153.303253 166.936310,152.948975 
	C166.451797,152.728195 166.265396,152.625854 165.837128,152.317993 
	C165.329178,151.787537 165.084610,151.447159 164.692520,150.828461 
	C164.410309,150.388748 164.297882,150.211411 164.015411,149.766724 
	C163.304489,148.550766 162.568954,147.747620 161.694763,146.603180 
	C161.377335,146.091873 161.264648,145.872482 161.019012,145.297211 
	C160.613251,143.623260 160.141068,142.358902 159.765198,140.609100 
	C159.429657,100.113945 159.583191,60.058586 159.639862,19.555977 
	C159.760666,17.969503 160.081253,16.888578 160.631470,15.469755 
	C160.841797,14.870496 160.935089,14.638405 161.193634,14.078733 
	C161.804642,12.930742 162.436234,12.215994 162.875092,10.996548 
	C163.111130,10.467751 163.215393,10.259089 163.515564,9.755272 
	C163.871918,9.283168 164.032379,9.106219 164.473358,8.696337 
	C164.963776,8.332383 165.173706,8.201363 165.721863,7.907250 
	C168.623932,6.438726 171.310715,5.470972 174.542236,4.746427 
	C214.660187,4.429082 254.346603,4.609092 294.468323,4.600163 
	C297.928894,4.694551 300.376007,6.412593 303.407959,7.607176 
	C303.997986,7.817993 304.229370,7.912569 304.787170,8.187618 
	C305.310211,8.518497 305.506805,8.668901 305.959595,9.087339 
	C306.356567,9.558594 306.497345,9.761816 306.805878,10.295347 
	C307.566071,12.540759 308.636566,14.210862 309.841797,16.274305 
	C310.083374,16.927589 310.158691,17.203720 310.291260,17.918175 
	C310.546112,55.880409 310.375397,93.404602 310.437683,130.928619 
	C310.442383,133.750275 310.348022,136.573837 310.651184,139.796631 
	C311.082306,141.999283 312.052338,143.391861 313.730408,144.754944 
z"/>
<path fill="#F9F9F9" opacity="1.000000" stroke="none" 
	d="
M304.671204,151.853790 
	C310.058838,155.585373 310.484955,149.291901 313.654541,148.055511 
	C314.000000,202.314346 313.964111,256.628784 314.088257,310.942810 
	C314.095795,314.239960 313.601654,315.106903 310.059631,315.102478 
	C208.428650,314.975464 106.797432,314.970215 5.166508,315.115051 
	C1.331024,315.120514 0.918677,314.045135 0.921860,310.669250 
	C1.017833,208.871582 1.021825,107.073799 0.908450,5.276177 
	C0.904518,1.745826 1.539758,0.891780 5.221087,0.896472 
	C106.685448,1.025776 208.150055,1.029974 309.614380,0.888899 
	C313.615662,0.883335 314.092865,2.071298 314.083252,5.611625 
	C313.957825,51.761711 314.000000,97.912254 314.000000,144.531342 
	C312.333099,144.847443 310.154358,145.597839 310.006348,142.359863 
	C309.083466,140.246078 309.538116,138.380539 309.534821,136.584610 
	C309.461060,96.665436 309.601013,56.746094 309.212738,16.392965 
	C308.979828,15.959006 308.990997,15.984298 308.998962,15.995598 
	C307.952850,14.265332 307.284973,12.341756 306.204651,10.249035 
	C305.992157,9.985636 306.000305,10.000793 306.007019,10.006170 
	C305.791443,9.780509 305.566223,9.552358 305.165833,9.159303 
	C304.993622,8.991510 305.000000,9.000106 305.004639,9.002203 
	C302.113800,7.622657 299.463593,5.618077 295.633270,5.487162 
	C255.371628,5.488745 215.552353,5.487232 175.289719,5.487699 
	C171.460800,5.540120 168.448425,6.713826 165.322357,8.775973 
	C164.989365,9.005424 165.000687,9.000005 165.004395,8.994913 
	C164.776688,9.212349 164.548218,9.437876 164.154663,9.838846 
	C163.986633,10.011293 163.999725,10.000702 164.003677,9.993252 
	C163.114471,10.993026 162.969345,12.344985 162.190674,13.753208 
	C161.991730,14.009764 162.000610,14.000341 162.003357,13.994521 
	C161.206146,15.206753 160.619675,16.505833 160.488953,18.434139 
	C160.489761,59.035206 160.486740,99.181053 160.487854,139.780869 
	C160.474197,141.997025 160.959061,143.655609 161.771072,145.651001 
	C162.002869,146.007629 162.000305,146.000000 161.997101,145.997467 
	C162.799179,147.219437 163.364624,148.616302 164.781860,149.785400 
	C165.006180,150.008545 165.000198,149.999207 164.996368,149.995056 
	C165.422134,150.428711 165.471863,151.023529 165.826416,151.791870 
	C166.008545,152.016144 166.000000,152.000015 165.991760,151.996155 
	C166.680115,152.739014 167.646912,152.407150 168.746490,152.813583 
	C169.014999,153.009995 169.000183,152.999313 168.991974,152.995300 
	C170.518509,153.792984 172.195633,154.135971 174.318970,154.510071 
	C214.626724,154.509995 254.479813,154.513443 294.787445,154.511719 
	C297.023468,154.645111 298.687256,154.211700 300.644043,153.233673 
	C301.002045,153.002396 301.000000,153.000000 301.000854,153.001373 
	C302.023499,152.335541 303.072144,151.736969 304.671204,151.853790 
z"/>
<path fill="#61B762" opacity="1.000000" stroke="none" 
	d="
M288.884735,95.743500 
	C280.966919,117.484253 266.095367,130.680374 243.508347,134.299072 
	C223.938263,137.434402 206.969788,131.252060 193.951752,116.673859 
	C174.265518,94.628273 174.264526,65.143295 192.894104,42.325134 
	C206.200012,26.027576 230.617645,18.914282 251.346939,25.296789 
	C273.112000,31.998205 289.033234,51.158947 291.016785,72.638939 
	C291.732574,80.389885 291.048492,87.907021 288.884735,95.743500 
z"/>
<path fill="#C7C7C7" opacity="1.000000" stroke="none" 
	d="
M308.987335,16.431395 
	C310.663849,17.618481 309.953064,19.739130 309.955414,21.652925 
	C310.003937,61.449947 310.000305,101.247025 310.000244,141.510254 
	C308.194580,140.349609 309.048004,138.208710 309.045227,136.323990 
	C308.987030,96.517319 308.997681,56.710541 308.987335,16.431395 
z"/>
<path fill="#C8C8C8" opacity="1.000000" stroke="none" 
	d="
M160.286194,142.163742 
	C160.051666,100.637177 160.045670,59.311199 160.063370,17.520668 
	C160.228104,16.918240 160.369125,16.780365 160.744690,16.822830 
	C160.988190,58.356342 160.997162,99.709511 161.003906,141.531342 
	C160.839325,142.121460 160.677017,142.242905 160.286194,142.163742 
z"/>
<path fill="#C9C9C9" opacity="1.000000" stroke="none" 
	d="
M172.838242,5.291866 
	C214.039871,5.045272 255.040588,5.029374 296.508240,5.025534 
	C297.154449,5.189886 297.333710,5.342179 297.243652,5.722445 
	C255.961288,5.972079 214.948166,5.993739 173.466248,6.016313 
	C172.877380,5.852338 172.757355,5.687450 172.838242,5.291866 
z"/>
<path fill="#C6C6C6" opacity="1.000000" stroke="none" 
	d="
M297.238495,154.731384 
	C255.967407,154.963516 214.970093,154.970596 173.507034,154.959778 
	C172.905807,154.792938 172.770309,154.644012 172.818832,154.255615 
	C214.012680,154.018051 255.022491,154.019943 296.498444,154.039124 
	C297.147156,154.206375 297.329712,154.356339 297.238495,154.731384 
z"/>
<path fill="#DCDCDC" opacity="1.000000" stroke="none" 
	d="
M172.659637,5.044859 
	C173.039169,5.061171 173.009506,5.538662 173.003464,5.777944 
	C170.579758,7.016818 168.162094,8.016411 165.366898,9.010714 
	C166.500076,5.994034 169.431732,5.587651 172.659637,5.044859 
z"/>
<path fill="#DCDCDC" opacity="1.000000" stroke="none" 
	d="
M297.294556,6.107238 
	C296.974396,5.950418 296.985565,5.493653 296.980377,5.265623 
	C300.057617,4.983521 302.466766,6.485170 304.856964,8.693460 
	C302.136108,9.192717 300.036896,7.292650 297.294556,6.107238 
z"/>
<path fill="#DCDCDC" opacity="1.000000" stroke="none" 
	d="
M305.982300,10.349838 
	C308.063110,11.143559 308.757385,13.088845 309.013702,15.643804 
	C306.902374,14.869262 306.271057,12.887016 305.982300,10.349838 
z"/>
<path fill="#DCDCDC" opacity="1.000000" stroke="none" 
	d="
M164.975494,149.678894 
	C162.899261,149.925797 162.069199,148.666016 161.986359,146.359665 
	C163.442322,146.704147 164.492554,147.763672 164.975494,149.678894 
z"/>
<path fill="#DDDDDD" opacity="1.000000" stroke="none" 
	d="
M304.973877,151.696518 
	C303.902618,152.350372 302.802765,152.693497 301.352295,153.019684 
	C302.111206,151.963806 302.498413,149.163162 304.973877,151.696518 
z"/>
<path fill="#DCDCDC" opacity="1.000000" stroke="none" 
	d="
M160.040314,142.315613 
	C160.057663,141.963150 160.529037,141.996872 160.765350,141.998444 
	C162.173187,142.833374 161.968262,144.095734 162.012924,145.642395 
	C160.480667,145.405624 159.998352,144.187119 160.040314,142.315613 
z"/>
<path fill="#DCDCDC" opacity="1.000000" stroke="none" 
	d="
M162.301971,13.855343 
	C161.892487,12.560884 162.070297,11.217013 163.701233,10.146793 
	C164.127014,11.443720 163.922623,12.780028 162.301971,13.855343 
z"/>
<path fill="#DDDDDD" opacity="1.000000" stroke="none" 
	d="
M307.894104,147.369751 
	C307.743317,148.474915 307.518677,149.286880 306.460449,149.218231 
	C306.315674,149.208862 306.030121,148.615173 306.109131,148.404144 
	C306.398499,147.631531 306.282257,146.186584 307.894104,147.369751 
z"/>
<path fill="#DCDCDC" opacity="1.000000" stroke="none" 
	d="
M172.765656,153.746902 
	C173.002853,154.016159 173.010971,154.479965 173.026123,154.710907 
	C171.604416,155.019043 170.469543,154.284973 169.157425,153.275970 
	C170.165344,153.153412 171.346909,153.315536 172.765656,153.746902 
z"/>
<path fill="#DDDDDD" opacity="1.000000" stroke="none" 
	d="
M297.317261,154.974457 
	C296.964722,154.956436 296.978424,154.505890 296.971497,154.281143 
	C298.074066,153.699570 299.183563,153.342743 300.647552,152.994156 
	C300.400024,154.517624 299.195953,155.024750 297.317261,154.974457 
z"/>
<path fill="#DCDCDC" opacity="1.000000" stroke="none" 
	d="
M161.248810,16.800808 
	C160.979202,17.003170 160.531967,17.021986 160.309525,17.039049 
	C159.988434,15.866468 160.475143,14.953528 161.709030,14.121019 
	C161.843552,14.858617 161.680984,15.728532 161.248810,16.800808 
z"/>
<path fill="#DCDCDC" opacity="1.000000" stroke="none" 
	d="
M168.806519,152.743088 
	C168.145279,152.846588 167.275558,152.683167 166.194672,152.256027 
	C166.855011,152.153595 167.726532,152.314880 168.806519,152.743088 
z"/>
<path fill="#DCDCDC" opacity="1.000000" stroke="none" 
	d="
M166.009186,151.709473 
	C165.673828,151.544128 165.339111,151.072128 164.998474,150.295517 
	C165.331650,150.461548 165.670746,150.932175 166.009186,151.709473 
z"/>
<path fill="#DCDCDC" opacity="1.000000" stroke="none" 
	d="
M305.085480,9.229313 
	C305.264893,9.178547 305.536163,9.365582 305.910583,9.782084 
	C305.734924,9.830070 305.456146,9.648592 305.085480,9.229313 
z"/>
<path fill="#DCDCDC" opacity="1.000000" stroke="none" 
	d="
M164.224304,9.918348 
	C164.173599,9.738819 164.360580,9.466352 164.777832,9.091852 
	C164.826065,9.268349 164.644028,9.546878 164.224304,9.918348 
z"/>
<path fill="#F9F8F8" opacity="1.000000" stroke="none" 
	d="
M160.238129,175.283310 
	C158.184723,174.947571 157.631790,177.298035 155.447662,176.993622 
	C154.711700,176.617172 154.560944,176.154770 154.880753,175.306366 
	C157.366119,172.908829 159.621552,170.818832 161.931763,168.388489 
	C162.520248,167.495270 163.061432,166.949753 163.802765,166.196945 
	C164.005890,165.992554 163.999985,166.000549 163.996063,166.003754 
	C164.222809,165.787903 164.449631,165.564941 164.838196,165.166351 
	C165.003754,164.994598 165.000000,165.000000 164.997284,165.001907 
	C165.225540,164.785187 165.452408,164.562424 165.840866,164.163971 
	C166.006531,163.992416 166.000549,164.000000 165.996704,164.002762 
	C166.531754,163.469315 167.074524,162.936996 167.807587,162.191803 
	C168.008652,161.989700 167.999664,162.000351 167.993317,162.003510 
	C169.651321,161.230545 171.441910,160.900406 173.690308,160.518921 
	C214.370605,160.511871 254.580383,160.512543 295.263123,160.511932 
	C297.329132,160.416260 298.782288,160.933289 300.611206,161.769043 
	C301.006348,162.002792 301.000000,162.000000 300.997620,161.997574 
	C301.998413,162.892593 303.351959,163.030075 304.757355,163.809875 
	C305.013885,164.008240 305.000000,163.999710 304.995850,163.992615 
	C305.418854,164.425415 305.471985,165.019409 305.825745,165.788788 
	C306.008942,166.012543 306.000183,166.000992 305.995575,165.995377 
	C308.309875,168.001114 309.289886,170.626114 309.485901,174.067841 
	C309.487640,214.457169 309.488129,254.389938 309.489868,294.774841 
	C309.306610,298.765594 307.979279,301.816284 305.278992,304.708496 
	C304.988312,305.012573 305.000000,305.000000 305.006287,304.994171 
	C303.510193,306.698425 301.596619,307.779388 299.247681,308.797760 
	C298.990417,309.007782 299.000000,309.000000 299.005524,308.997131 
	C298.451019,309.360168 297.837067,309.522766 296.682190,309.484802 
	C255.848785,309.488190 215.502579,309.487823 174.683472,309.486237 
	C172.369675,309.293823 170.599167,308.739197 168.380646,308.211212 
	C167.980743,307.989594 167.998947,307.999420 168.005981,308.006958 
	C167.474274,307.474091 166.940399,306.928833 166.192596,306.192810 
	C165.989807,305.990906 166.000961,306.000122 166.006760,306.004395 
	C165.585938,305.562653 164.997604,305.496674 164.216187,305.167084 
	C163.985519,304.991760 164.000290,305.000122 164.005966,305.006531 
	C163.788620,304.777802 163.561508,304.546722 163.155411,304.150909 
	C162.980530,303.982178 162.998978,304.000122 163.005493,304.011230 
	C162.312302,303.301697 162.614914,302.342438 162.202545,301.246216 
	C161.992874,300.988922 162.000000,301.000000 162.003296,301.005524 
	C161.180450,299.726685 160.757614,298.300354 160.519714,296.349060 
	C160.554321,255.782928 160.426788,215.674179 160.238129,175.283310 
z"/>
<path fill="#F8F9F8" opacity="1.000000" stroke="none" 
	d="
M14.984924,154.594513 
	C15.317270,156.419968 15.633707,157.882538 16.003647,159.718842 
	C17.813887,160.881378 19.672026,160.491653 21.478090,160.492828 
	C60.934772,160.518524 100.391479,160.511902 140.320526,160.513748 
	C142.631073,160.707169 144.399399,161.259628 146.615189,161.787170 
	C147.015076,162.007492 147.000610,162.000565 146.995514,161.994476 
	C148.312241,163.425110 149.848770,164.595245 151.759033,165.816254 
	C152.016937,166.010895 152.000381,165.999268 151.995453,165.990448 
	C152.688736,166.702957 152.383209,167.663559 152.800964,168.759125 
	C153.010742,169.016479 152.999466,169.000565 152.994629,168.992096 
	C153.947495,170.268967 153.947174,171.866989 154.444305,173.785492 
	C154.491425,214.331192 154.486084,254.407303 154.489563,294.941528 
	C152.935760,304.145386 149.321762,307.785767 140.053162,309.485168 
	C99.594795,309.487305 59.594227,309.488220 19.138556,309.489807 
	C15.662325,309.424835 13.403168,307.362946 10.346512,306.218475 
	C9.985994,305.992004 10.000757,306.000336 10.006327,306.006744 
	C9.773580,305.755463 9.519126,305.514862 9.035232,305.137512 
	C8.569655,304.881622 8.362700,304.721130 8.107674,304.327026 
	C7.083500,302.004242 6.849738,299.599091 5.548593,297.115326 
	C5.513116,256.562103 5.510868,216.468246 5.511281,175.962097 
	C5.289923,172.294403 7.138085,169.491074 7.270021,166.216080 
	C6.529495,164.693680 3.766792,165.304184 4.320761,163.134857 
	C4.700348,161.648422 6.293232,162.365234 7.241808,161.914246 
	C10.747514,160.247452 11.649136,157.264587 11.048807,153.292145 
	C11.572690,152.385162 12.247192,152.217026 13.347052,152.413528 
	C14.341541,152.928436 14.749622,153.509293 14.984924,154.594513 
z"/>
<path fill="#C7C7C7" opacity="1.000000" stroke="none" 
	d="
M142.185425,160.772675 
	C102.369972,161.015228 62.736088,161.011566 23.102217,160.982132 
	C20.952831,160.980545 18.803606,160.763245 16.355728,160.369446 
	C57.716557,160.067612 99.375961,160.042664 141.501862,160.031525 
	C142.101242,160.203903 142.234116,160.362473 142.185425,160.772675 
z"/>
<path fill="#C7C7C7" opacity="1.000000" stroke="none" 
	d="
M5.741129,172.816498 
	C5.984634,214.355087 5.988431,255.707672 5.987606,297.528687 
	C5.821552,298.140991 5.660118,298.284851 5.281542,298.187805 
	C5.047690,256.618622 5.030981,215.290390 5.028984,173.495544 
	C5.196272,172.896088 5.348847,172.763275 5.741129,172.816498 
z"/>
<path fill="#C6C6C6" opacity="1.000000" stroke="none" 
	d="
M142.058212,154.466492 
	C100.643707,154.958511 59.317581,154.958069 17.527536,154.930817 
	C17.012032,154.575974 16.960445,154.247971 17.285034,153.592987 
	C19.992754,152.082108 22.521032,152.321930 24.994711,152.320251 
	C61.356781,152.295502 97.718864,152.299377 134.080948,152.313248 
	C136.235229,152.314072 138.404922,152.220276 140.959137,153.082947 
	C141.657135,153.520767 141.901871,153.747406 142.058212,154.466492 
z"/>
<path fill="#C8C8C8" opacity="1.000000" stroke="none" 
	d="
M159.934998,175.468567 
	C160.001465,174.362549 160.103470,173.724045 160.205460,173.085526 
	C160.462601,173.090302 160.719727,173.095062 160.976868,173.099823 
	C160.976868,214.079071 160.976868,255.058319 160.956223,296.503906 
	C160.788422,297.151001 160.641281,297.331726 160.275024,297.240051 
	C160.027435,256.623840 159.998993,216.279968 159.934998,175.468567 
z"/>
<path fill="#C8C8C8" opacity="1.000000" stroke="none" 
	d="
M154.432968,16.968605 
	C154.940796,58.377495 154.956299,99.698166 154.945221,141.483582 
	C154.590775,142.002716 154.262894,142.057129 153.605743,141.736908 
	C152.148972,139.198837 152.322510,136.841156 152.320892,134.530212 
	C152.295273,97.840851 152.299423,61.151482 152.314285,24.462118 
	C152.315094,22.472725 152.261124,20.471735 153.064316,18.079025 
	C153.494766,17.376305 153.717712,17.128361 154.432968,16.968605 
z"/>
<path fill="#C7C7C7" opacity="1.000000" stroke="none" 
	d="
M5.548845,142.048798 
	C5.046188,100.634270 5.036383,59.306458 5.044185,17.513321 
	C5.389086,16.989262 5.716379,16.930523 6.376666,17.243443 
	C7.850318,19.775337 7.677740,22.134518 7.679373,24.446278 
	C7.705301,61.150352 7.701169,97.854446 7.686018,134.558533 
	C7.685196,136.548737 7.738060,138.550659 6.925965,140.942215 
	C6.491543,141.642746 6.266631,141.889145 5.548845,142.048798 
z"/>
<path fill="#C7C7C7" opacity="1.000000" stroke="none" 
	d="
M309.264648,297.182434 
	C309.021240,255.980301 309.016205,214.965012 309.017670,173.482025 
	C309.183105,172.838776 309.342041,172.663223 309.732239,172.757278 
	C309.970154,214.028824 309.976807,255.030731 309.968903,296.498901 
	C309.803925,297.099884 309.653473,297.234589 309.264648,297.182434 
z"/>
<path fill="#C8C8C8" opacity="1.000000" stroke="none" 
	d="
M154.274841,297.181641 
	C154.029343,255.975082 154.019257,214.958298 154.020325,173.473282 
	C154.188705,172.880539 154.345963,172.756027 154.727020,172.832565 
	C154.976898,173.471146 155.002975,173.908676 155.069870,174.672516 
	C155.086990,175.444016 155.063278,175.889221 155.071381,176.667755 
	C155.064148,216.678894 155.025101,256.356720 154.973145,296.500977 
	C154.810211,297.102112 154.660217,297.236786 154.274841,297.181641 
z"/>
<path fill="#C9C9C9" opacity="1.000000" stroke="none" 
	d="
M16.958874,5.557470 
	C58.050316,5.041413 99.054680,5.018243 140.527405,5.000047 
	C141.052505,5.332807 141.109238,5.660594 140.802765,6.330888 
	C138.289307,7.847764 135.927704,7.677462 133.615295,7.679179 
	C97.228737,7.706203 60.842155,7.701153 24.455580,7.686407 
	C22.464567,7.685600 20.461889,7.739092 18.068357,6.931013 
	C17.366398,6.498399 17.119101,6.274377 16.958874,5.557470 
z"/>
<path fill="#C9C9C9" opacity="1.000000" stroke="none" 
	d="
M16.821461,309.275818 
	C58.023701,309.031738 99.040718,309.017487 140.526047,309.006042 
	C141.167725,309.173096 141.341080,309.337341 141.258240,309.751953 
	C99.993706,309.992249 58.985355,309.982147 17.511707,309.951141 
	C16.909685,309.788727 16.772963,309.647186 16.821461,309.275818 
z"/>
<path fill="#C7C7C7" opacity="1.000000" stroke="none" 
	d="
M297.246765,160.733032 
	C255.969055,160.975937 214.956833,160.983765 173.476501,160.988602 
	C172.834961,160.824448 172.661560,160.663284 172.759766,160.273407 
	C214.033249,160.034180 255.035126,160.023682 296.503571,160.026947 
	C297.150848,160.193115 297.331573,160.345551 297.246765,160.733032 
z"/>
<path fill="#C9C9C9" opacity="1.000000" stroke="none" 
	d="
M172.819000,309.274597 
	C214.019028,309.032684 255.032974,309.020966 296.514404,309.016510 
	C297.156250,309.182129 297.330597,309.340515 297.239777,309.732391 
	C255.971069,309.971893 214.967514,309.977875 173.497665,309.963257 
	C172.898560,309.796722 172.765747,309.650787 172.819000,309.274597 
z"/>
<path fill="#DFDFDF" opacity="1.000000" stroke="none" 
	d="
M141.392456,310.010132 
	C141.002060,310.002350 141.011246,309.505402 141.002808,309.257111 
	C147.079590,307.219360 151.677902,303.824432 153.768402,297.210480 
	C154.039444,296.991882 154.500443,296.989380 154.730316,296.978394 
	C153.855499,304.522644 149.521347,308.815063 141.392456,310.010132 
z"/>
<path fill="#DFDFDF" opacity="1.000000" stroke="none" 
	d="
M140.954590,6.396801 
	C141.008560,5.866047 141.009933,5.693779 141.003540,5.263267 
	C147.458405,4.926951 154.177155,9.935021 154.941833,16.677759 
	C154.925293,17.056818 154.444397,17.017086 154.203430,17.004959 
	C153.626953,17.105627 153.184357,17.184195 153.042587,16.964867 
	C150.037628,12.315963 145.849014,9.087605 140.954590,6.396801 
z"/>
<path fill="#DEDEDE" opacity="1.000000" stroke="none" 
	d="
M6.327917,17.103027 
	C5.981183,17.003166 5.520451,17.014633 5.291122,17.031315 
	C6.181139,13.981391 6.131656,10.154571 10.842926,9.308220 
	C11.181148,12.947584 9.024327,15.135182 6.327917,17.103027 
z"/>
<path fill="#DDDDDD" opacity="1.000000" stroke="none" 
	d="
M308.761810,297.216675 
	C309.026276,296.995575 309.491150,296.994385 309.722748,296.979767 
	C309.667297,300.230438 308.872375,303.225769 305.346497,304.986206 
	C306.157990,302.487640 307.327667,299.962708 308.761810,297.216675 
z"/>
<path fill="#DBDBDB" opacity="1.000000" stroke="none" 
	d="
M6.243432,172.767029 
	C5.980837,173.002518 5.511529,173.002090 5.277614,173.015503 
	C5.602973,170.925827 6.162248,168.822769 6.872138,166.392639 
	C7.829876,165.559067 8.636999,165.052521 9.913654,164.251312 
	C9.276047,167.584747 6.632674,169.576584 6.243432,172.767029 
z"/>
<path fill="#DDDDDD" opacity="1.000000" stroke="none" 
	d="
M309.978760,172.636658 
	C309.963501,173.026901 309.493835,173.003006 309.258972,173.008667 
	C308.038391,170.906906 307.052612,168.799500 306.028900,166.340927 
	C309.630096,166.600693 309.704498,169.492371 309.978760,172.636658 
z"/>
<path fill="#DCDCDC" opacity="1.000000" stroke="none" 
	d="
M5.040886,142.339203 
	C5.055994,141.962082 5.540580,141.997467 5.783497,142.000732 
	C9.101280,142.720367 8.920669,145.478149 9.292612,148.355225 
	C5.861383,148.049973 5.641131,145.258820 5.040886,142.339203 
z"/>
<path fill="#DDDDDD" opacity="1.000000" stroke="none" 
	d="
M16.807304,308.760223 
	C17.006680,309.045990 17.020630,309.489014 17.033520,309.709656 
	C14.447506,309.530060 12.191810,308.434540 10.143303,306.296265 
	C12.574437,305.802826 14.533052,307.293701 16.807304,308.760223 
z"/>
<path fill="#DEDEDE" opacity="1.000000" stroke="none" 
	d="
M16.677240,5.049804 
	C17.045948,5.064584 17.014341,5.526862 17.007973,5.758453 
	C16.509670,9.117735 14.212693,9.474404 11.340988,9.234101 
	C11.007773,9.007892 11.000189,9.000185 10.994967,8.994775 
	C11.820139,6.403495 13.823734,5.395638 16.677240,5.049804 
z"/>
<path fill="#DDDDDD" opacity="1.000000" stroke="none" 
	d="
M299.362488,309.011414 
	C300.224792,306.956543 302.371887,306.143433 304.670715,305.030365 
	C304.649170,308.160309 302.158844,308.544373 299.362488,309.011414 
z"/>
<path fill="#DCDCDC" opacity="1.000000" stroke="none" 
	d="
M151.871582,165.709900 
	C149.843521,165.674042 147.906540,164.983109 147.015564,162.338226 
	C149.298370,162.118759 150.395081,163.926132 151.871582,165.709900 
z"/>
<path fill="#DCDCDC" opacity="1.000000" stroke="none" 
	d="
M14.036921,152.364822 
	C13.229093,153.017990 12.492417,153.001633 11.388401,152.960358 
	C10.354375,151.844070 9.687689,150.752670 9.004488,149.336655 
	C8.987973,149.012039 8.999428,149.000626 9.003872,148.997086 
	C11.544075,148.316422 12.940509,149.789856 14.036921,152.364822 
z"/>
<path fill="#DDDDDD" opacity="1.000000" stroke="none" 
	d="
M5.171621,298.279022 
	C5.064400,297.946838 5.523263,297.982574 5.753124,297.989868 
	C7.678782,299.398651 8.086097,301.293945 8.026831,303.757629 
	C6.248638,302.726562 6.212560,300.447327 5.171621,298.279022 
z"/>
<path fill="#DCDCDC" opacity="1.000000" stroke="none" 
	d="
M142.263107,161.291290 
	C142.003860,161.024338 142.000031,160.533966 141.984192,160.289642 
	C143.717239,159.835648 145.212540,160.462921 146.807190,161.727966 
	C145.517502,161.857742 144.019928,161.708008 142.263107,161.291290 
z"/>
<path fill="#DADADA" opacity="1.000000" stroke="none" 
	d="
M172.751648,308.765442 
	C173.005066,309.044403 173.009552,309.494324 173.020477,309.718506 
	C171.283875,310.148621 169.780441,309.534760 168.182693,308.274445 
	C169.499619,308.036682 171.061539,307.692383 172.751648,308.765442 
z"/>
<path fill="#DCDCDC" opacity="1.000000" stroke="none" 
	d="
M153.644485,141.947845 
	C154.059387,141.990402 154.490219,141.979233 154.704437,141.963776 
	C155.185745,143.704620 154.568344,145.205185 153.004974,146.513916 
	C151.728333,144.751877 151.636902,143.180832 153.644485,141.947845 
z"/>
<path fill="#DCDCDC" opacity="1.000000" stroke="none" 
	d="
M154.967026,172.681152 
	C154.950821,173.033630 154.491287,173.007095 154.261383,173.006073 
	C152.836823,172.179245 153.030731,170.910843 152.986969,169.351364 
	C154.499069,169.595184 155.001663,170.806671 154.967026,172.681152 
z"/>
<path fill="#DCDCDC" opacity="1.000000" stroke="none" 
	d="
M172.672363,160.030609 
	C173.031387,160.044678 173.003754,160.514877 173.006073,160.750244 
	C171.689880,161.764648 170.277725,162.160126 168.361938,162.017548 
	C169.101028,160.630112 170.612518,160.117538 172.672363,160.030609 
z"/>
<path fill="#DCDCDC" opacity="1.000000" stroke="none" 
	d="
M142.320602,154.974182 
	C141.969833,154.958954 141.985397,154.505951 141.988022,154.279327 
	C141.908417,151.993668 143.374039,152.190704 145.370697,152.614548 
	C145.389511,154.507126 144.183136,155.011642 142.320602,154.974182 
z"/>
<path fill="#DCDCDC" opacity="1.000000" stroke="none" 
	d="
M153.012238,147.012527 
	C152.957245,148.552139 152.240860,149.577148 150.163712,149.709106 
	C149.444626,147.465088 150.377869,146.527634 152.648544,146.761810 
	C152.973862,146.974899 152.999374,146.999649 153.012238,147.012527 
z"/>
<path fill="#DCDCDC" opacity="1.000000" stroke="none" 
	d="
M17.001366,153.584503 
	C17.001114,154.007141 17.023867,154.456940 17.043743,154.680466 
	C16.605225,154.925964 16.146830,154.947937 15.344633,154.963654 
	C14.669793,154.508652 14.338757,154.059891 13.986744,153.322754 
	C13.965768,153.034348 13.993879,153.005020 14.006426,152.989594 
	C15.067963,152.166321 16.065641,152.173859 17.001366,153.584503 
z"/>
<path fill="#DDDDDD" opacity="1.000000" stroke="none" 
	d="
M297.300812,161.119232 
	C296.981262,160.968109 296.993744,160.503845 296.981934,160.272278 
	C298.421814,159.916687 299.765350,160.097000 300.863037,161.687775 
	C299.877686,161.758652 298.749023,161.514511 297.300812,161.119232 
z"/>
<path fill="#DADADA" opacity="1.000000" stroke="none" 
	d="
M160.039001,297.319580 
	C160.055908,296.967712 160.496246,296.985474 160.715912,296.977875 
	C161.295441,298.080475 161.655289,299.190704 162.010864,300.655975 
	C160.496277,300.402283 160.008835,299.185638 160.039001,297.319580 
z"/>
<path fill="#DDDDDD" opacity="1.000000" stroke="none" 
	d="
M304.857391,163.699005 
	C303.568390,164.099503 302.211304,163.955002 301.148743,162.305634 
	C302.442902,161.895584 303.794556,162.051086 304.857391,163.699005 
z"/>
<path fill="#DADADA" opacity="1.000000" stroke="none" 
	d="
M166.018250,306.317017 
	C166.914536,306.058899 167.696243,306.329773 167.975967,307.689819 
	C167.097397,307.930420 166.294388,307.684845 166.018250,306.317017 
z"/>
<path fill="#DCDCDC" opacity="1.000000" stroke="none" 
	d="
M163.678772,166.028076 
	C163.940765,166.919556 163.666763,167.700256 162.310699,167.999100 
	C162.044632,167.113571 162.305191,166.318298 163.678772,166.028076 
z"/>
<path fill="#DCDCDC" opacity="1.000000" stroke="none" 
	d="
M150.032532,150.032684 
	C149.969315,150.960205 149.679291,151.717484 148.149414,151.699524 
	C147.503830,150.186157 148.081284,149.566498 149.646423,149.760651 
	C149.962677,149.963104 150.009293,150.009445 150.032532,150.032684 
z"/>
<path fill="#DCDCDC" opacity="1.000000" stroke="none" 
	d="
M167.684814,162.027069 
	C167.992386,162.945297 167.661713,163.678375 166.316727,163.964188 
	C166.046677,163.074997 166.331009,162.306931 167.684814,162.027069 
z"/>
<path fill="#DCDCDC" opacity="1.000000" stroke="none" 
	d="
M153.016235,168.674042 
	C152.095749,168.485931 151.963287,167.606644 151.977341,166.324783 
	C152.902527,166.515579 153.022598,167.397049 153.016235,168.674042 
z"/>
<path fill="#DADADA" opacity="1.000000" stroke="none" 
	d="
M161.977966,301.330566 
	C162.926437,301.510864 163.033890,302.398407 163.021561,303.678528 
	C162.120819,303.480682 161.968735,302.609131 161.977966,301.330566 
z"/>
<path fill="#DDDDDD" opacity="1.000000" stroke="none" 
	d="
M297.278076,309.962952 
	C296.974640,309.965912 296.993988,309.494751 296.987915,309.259277 
	C297.432739,309.006775 297.883606,308.989777 298.672760,308.983521 
	C298.534546,309.316162 298.058014,309.638062 297.278076,309.962952 
z"/>
<path fill="#DADADA" opacity="1.000000" stroke="none" 
	d="
M164.149292,305.247620 
	C164.551544,305.160767 165.117554,305.329803 165.848068,305.753754 
	C165.446060,305.840271 164.879562,305.671875 164.149292,305.247620 
z"/>
<path fill="#DCDCDC" opacity="1.000000" stroke="none" 
	d="
M148.022156,152.030304 
	C147.572403,152.371429 147.100906,152.686111 146.333130,153.019547 
	C146.036865,153.038315 146.008072,153.007324 145.995361,152.990845 
	C145.832413,151.960571 146.433121,151.642303 147.622818,151.757446 
	C147.954849,151.952866 148.000443,152.003876 148.022156,152.030304 
z"/>
<path fill="#DDDDDD" opacity="1.000000" stroke="none" 
	d="
M305.997681,165.708740 
	C305.675934,165.539780 305.342926,165.067017 305.000793,164.289902 
	C305.323273,164.458664 305.654816,164.931808 305.997681,165.708740 
z"/>
<path fill="#DCDCDC" opacity="1.000000" stroke="none" 
	d="
M165.770447,164.083374 
	C165.824219,164.265793 165.641907,164.539169 165.227097,164.908173 
	C165.174500,164.727325 165.354431,164.450821 165.770447,164.083374 
z"/>
<path fill="#DADADA" opacity="1.000000" stroke="none" 
	d="
M163.089172,304.210815 
	C163.259933,304.167450 163.539337,304.352722 163.915192,304.775452 
	C163.740372,304.821777 163.469086,304.630646 163.089172,304.210815 
z"/>
<path fill="#DDDDDD" opacity="1.000000" stroke="none" 
	d="
M8.976694,305.204041 
	C9.142510,305.157745 9.462998,305.331940 9.897691,305.759644 
	C9.718386,305.816956 9.424876,305.620728 8.976694,305.204041 
z"/>
<path fill="#DCDCDC" opacity="1.000000" stroke="none" 
	d="
M164.769684,165.088318 
	C164.820129,165.266251 164.636505,165.537918 164.222534,165.908264 
	C164.173309,165.731979 164.354462,165.457016 164.769684,165.088318 
z"/>
<path fill="#F7F9F7" opacity="1.000000" stroke="none" 
	d="
M226.325714,117.986298 
	C208.482819,112.583900 198.037720,101.232834 195.750977,82.862427 
	C193.370468,63.738579 206.688797,44.658253 225.569901,40.151554 
	C245.470444,35.401531 265.940521,46.163620 272.769135,64.966484 
	C279.820068,84.381416 271.467438,105.658287 252.942825,114.903481 
	C244.660004,119.037231 235.841553,120.043793 226.325714,117.986298 
z"/>
<path fill="#CE6257" opacity="1.000000" stroke="none" 
	d="
M201.858185,211.382996 
	C200.369385,210.463348 199.143494,209.589844 198.140976,208.509109 
	C194.471237,204.553162 194.151505,199.746811 197.242432,196.426147 
	C200.439529,192.991409 205.755753,192.969910 209.679047,196.747437 
	C215.780685,202.622421 221.683121,208.704666 227.656647,214.712311 
	C235.346268,222.445877 235.335663,222.446579 242.946091,214.856049 
	C244.944946,212.862396 246.984604,210.909653 249.300873,208.789795 
	C249.821747,208.729309 250.047256,208.817139 250.418320,209.236511 
	C248.159866,216.157425 242.859253,220.169968 237.283401,223.639297 
	C234.663574,225.269363 232.106049,223.486847 229.812256,221.361191 
	C222.875000,214.932434 216.870636,207.576385 209.712814,201.383575 
	C208.586334,200.408966 207.489456,199.368698 206.176865,198.638977 
	C203.893692,197.369629 201.615616,197.516266 199.725571,199.283752 
	C197.739777,201.140778 198.588074,203.221527 199.785507,205.160263 
	C200.739090,206.704163 202.067505,208.035004 202.449951,210.271545 
	C202.384750,210.869705 202.304153,211.101883 201.858185,211.382996 
z"/>
<path fill="#CE6257" opacity="1.000000" stroke="none" 
	d="
M251.911606,227.893341 
	C247.226440,234.417770 247.226898,234.417313 253.222214,240.344666 
	C259.145813,246.201065 265.066040,252.060928 270.992004,257.914948 
	C276.070831,262.932098 276.891876,268.157288 273.169525,271.831268 
	C269.611420,275.343201 264.479156,274.611938 259.588470,269.889343 
	C258.990692,269.312073 258.418945,268.707855 257.665405,267.828979 
	C257.488220,267.293427 257.480774,267.045044 257.794983,266.616028 
	C260.625519,265.922241 262.095428,267.572235 263.660248,269.066895 
	C265.764709,271.077026 268.127106,272.447449 270.472900,269.669189 
	C272.618958,267.127502 272.740356,264.707764 270.165039,261.804413 
	C263.226471,253.982071 255.179153,247.308929 248.014389,239.730682 
	C243.166931,234.603485 243.711121,230.893936 250.611664,227.456116 
	C251.203018,227.495911 251.434708,227.561920 251.911606,227.893341 
z"/>
<path fill="#CE6257" opacity="1.000000" stroke="none" 
	d="
M227.936554,251.905792 
	C221.859802,258.711914 215.667694,265.367706 209.192307,271.735413 
	C205.850494,275.021667 200.484055,274.784943 197.492584,271.772278 
	C194.374054,268.631653 194.393524,263.859924 197.598251,260.101532 
	C198.454575,259.097229 199.461914,258.221710 200.948944,257.411774 
	C202.279709,259.517548 201.369461,261.166077 200.279892,262.637054 
	C198.409821,265.161804 198.040802,267.626617 200.747314,269.602356 
	C203.440369,271.568268 206.087753,270.936737 208.308868,268.513000 
	C212.359360,264.092987 216.962311,260.204010 220.775589,255.557465 
	C222.280975,253.723099 223.983673,252.178238 226.666946,251.448547 
	C227.249374,251.497803 227.476578,251.566956 227.936554,251.905792 
z"/>
<path fill="#CE6257" opacity="1.000000" stroke="none" 
	d="
M201.080261,257.079559 
	C207.080475,250.866394 213.119690,244.692810 219.206100,238.566147 
	C223.823288,233.918427 223.845840,233.949249 219.326294,229.489014 
	C218.499725,228.673279 217.723145,227.806900 216.792694,226.655991 
	C216.784393,226.126297 216.906921,225.904495 217.386871,225.552155 
	C220.995300,225.771072 222.938766,228.181213 224.922287,230.297958 
	C226.757706,232.256699 226.320084,234.817215 224.834763,236.718262 
	C218.927536,244.278824 211.768173,250.641693 204.729141,257.104492 
	C203.993454,257.779907 202.934036,257.903595 201.583435,257.451569 
	C201.258560,257.258362 201.139542,257.139313 201.080261,257.079559 
z"/>
<path fill="#CE6257" opacity="1.000000" stroke="none" 
	d="
M272.945160,196.976654 
	C276.557770,201.427490 276.358459,204.652496 272.142365,208.877411 
	C265.748871,215.284241 259.229675,221.565567 252.460342,228.029480 
	C252.156815,228.158752 251.992661,227.996033 251.910248,227.915009 
	C250.285629,224.457825 253.082886,222.988159 254.929001,221.365372 
	C260.044067,216.869125 264.696289,211.932617 269.412537,207.040604 
	C271.795013,204.569382 273.035950,201.966492 272.329468,198.200623 
	C272.460052,197.622208 272.554108,197.401291 272.945160,196.976654 
z"/>
<path fill="#CE6257" opacity="1.000000" stroke="none" 
	d="
M249.716278,208.748901 
	C253.609299,204.465088 257.453003,200.106552 261.687988,196.168839 
	C265.198395,192.904846 269.168182,193.060013 273.086884,196.446228 
	C273.242157,196.772934 273.049835,196.958435 272.954834,197.052399 
	C264.811737,196.914093 259.786530,201.964264 254.906357,207.338348 
	C253.820480,208.534149 252.577682,209.731720 250.377884,209.270844 
	C250.073898,209.073975 249.836319,208.856323 249.716278,208.748901 
z"/>
<path fill="#CE6257" opacity="1.000000" stroke="none" 
	d="
M240.987122,250.141479 
	C235.130188,245.949814 235.130188,245.949814 228.480560,252.043365 
	C228.169296,252.175476 228.006088,252.008591 227.924164,251.925461 
	C227.305252,247.312134 230.098984,244.575195 233.682785,243.373993 
	C237.650482,242.044144 239.965195,245.048248 241.571594,248.782593 
	C241.502609,249.434021 241.416580,249.685913 240.987122,250.141479 
z"/>
<path fill="#CE6257" opacity="1.000000" stroke="none" 
	d="
M254.895218,264.335541 
	C252.333130,262.264008 250.127960,260.129883 247.785553,257.697510 
	C247.728561,257.173279 247.808823,256.947327 248.218445,256.574890 
	C252.448181,256.887421 253.950775,259.955658 255.564423,263.250732 
	C255.451477,263.832886 255.351807,264.052917 254.895218,264.335541 
z"/>
<path fill="#CE6257" opacity="1.000000" stroke="none" 
	d="
M247.748260,257.284180 
	C245.730270,255.596786 243.812225,253.794373 241.741074,251.700531 
	C241.671143,251.177322 241.754333,250.945541 242.176544,250.563324 
	C246.041946,250.766663 247.631805,253.044128 248.174255,256.587738 
	C248.047928,256.938904 247.848221,257.169159 247.748260,257.284180 
z"/>
<path fill="#CE6257" opacity="1.000000" stroke="none" 
	d="
M215.964203,225.179138 
	C213.717422,223.570541 211.800308,221.783752 209.732788,219.705566 
	C209.664505,219.179138 209.746628,218.944153 210.172424,218.559738 
	C213.814041,218.567886 215.200363,220.901093 216.386230,223.893814 
	C216.390396,224.510681 216.342148,224.755798 215.964203,225.179138 
z"/>
<path fill="#CE6257" opacity="1.000000" stroke="none" 
	d="
M207.955200,217.267303 
	C206.368332,216.258347 205.120041,215.144958 203.735992,213.746735 
	C203.640427,213.228043 203.680649,212.994156 204.061371,212.651688 
	C206.497375,212.740280 208.021942,213.674866 208.603210,216.163116 
	C208.489868,216.733124 208.391815,216.948013 207.955200,217.267303 
z"/>
<path fill="#CE6257" opacity="1.000000" stroke="none" 
	d="
M257.628632,267.403748 
	C256.599945,266.683746 255.704178,265.825684 254.673370,264.682861 
	C254.538300,264.398102 254.791428,264.180206 254.918579,264.071960 
	C256.961975,263.550293 257.731903,264.722687 258.124451,266.623260 
	C258.016144,266.979156 257.761566,267.265686 257.628632,267.403748 
z"/>
<path fill="#CE6257" opacity="1.000000" stroke="none" 
	d="
M203.705872,213.340393 
	C202.990601,212.960785 202.381012,212.459656 201.632111,211.695236 
	C201.492783,211.431946 201.762314,211.198410 201.896057,211.080475 
	C203.414444,210.249985 204.172623,210.730621 204.216522,212.594727 
	C204.026764,212.979156 203.811554,213.218842 203.705872,213.340393 
z"/>
<path fill="#CE6257" opacity="1.000000" stroke="none" 
	d="
M208.934326,218.433685 
	C208.274979,218.294403 208.008865,218.110764 207.715363,217.597717 
	C207.616623,217.371735 207.836533,217.161591 207.947479,217.057556 
	C208.496338,216.802200 208.868301,216.911560 209.290161,217.545853 
	C209.348816,218.066330 209.302521,218.279541 208.934326,218.433685 
z"/>
<path fill="#CE6257" opacity="1.000000" stroke="none" 
	d="
M209.695557,219.301941 
	C209.256607,219.307770 209.000015,219.111115 208.712524,218.599396 
	C208.612427,218.374619 208.824905,218.169769 208.930756,218.066956 
	C209.486221,217.829819 209.853516,217.949066 210.084686,218.641602 
	C210.030914,218.961304 209.808701,219.189743 209.695557,219.301941 
z"/>
<path fill="#CE6257" opacity="1.000000" stroke="none" 
	d="
M216.762177,226.242554 
	C216.324493,226.266464 216.052841,226.085938 215.740723,225.581909 
	C215.634537,225.357330 215.843704,225.153015 215.947632,225.050201 
	C216.490952,224.816040 216.845749,224.944290 217.094269,225.611023 
	C217.061340,225.924255 216.862503,226.137009 216.762177,226.242554 
z"/>
<path fill="#CE6257" opacity="1.000000" stroke="none" 
	d="
M241.700439,251.297272 
	C241.264038,251.295547 241.012161,251.092575 240.738007,250.572662 
	C240.643677,250.345123 240.853348,250.146210 240.958954,250.047577 
	C241.511627,249.829575 241.872360,249.956207 242.090286,250.643250 
	C242.033752,250.957809 241.812897,251.185471 241.700439,251.297272 
z"/>
<path fill="#5EB85F" opacity="1.000000" stroke="none" 
	d="
M36.643753,199.868240 
	C36.747799,199.466507 36.766087,199.183792 36.872849,199.090698 
	C40.765919,195.412247 44.528374,191.800766 48.756397,188.195709 
	C48.982388,187.939728 49.157387,187.730896 49.293407,187.723236 
	C56.363960,184.251297 63.095982,180.613342 71.114098,179.643509 
	C84.162010,178.065323 96.441467,179.122787 107.794746,186.393478 
	C110.980942,188.433914 114.019745,190.706909 117.684845,192.761383 
	C118.041527,192.965851 117.999977,192.999954 118.015579,192.977997 
	C121.239906,196.767212 123.956062,200.981735 127.737442,204.762192 
	C127.975075,205.005829 128.004715,205.000961 127.997910,205.014435 
	C130.694916,209.907578 132.246719,215.261917 134.500519,220.717224 
	C134.780701,221.470459 134.885071,221.905945 134.973145,222.678619 
	C134.877350,228.816498 136.066223,234.605484 135.020172,240.418701 
	C133.408142,249.377258 130.976334,257.720978 125.551994,265.545197 
	C117.295769,277.454224 105.948608,284.115845 92.759766,288.133667 
	C84.809372,290.555664 76.448586,289.620209 67.857643,288.488525 
	C66.937386,288.489868 66.416130,288.485077 65.520508,288.412842 
	C60.287048,284.669342 54.030769,283.524902 48.932770,279.579346 
	C48.573364,279.534973 48.548492,279.449127 48.503822,279.447937 
	C47.109200,276.662811 44.267933,275.704926 41.639915,273.949097 
	C41.173229,273.621948 41.004543,273.466797 40.662975,273.015167 
	C39.222393,269.120331 36.203407,266.986969 33.386200,264.240845 
	C33.160793,263.985443 32.919846,263.667267 32.890106,263.469910 
	C28.769852,254.727234 25.467037,245.964142 24.992086,236.348816 
	C24.325935,222.862732 28.734795,211.029984 36.643753,199.868240 
z"/>
<path fill="#72B574" opacity="1.000000" stroke="none" 
	d="
M66.760193,288.359863 
	C73.481361,287.277618 80.015228,288.655151 86.629730,288.181702 
	C92.705971,287.746796 98.150581,285.329437 103.281120,282.989655 
	C110.920235,279.505798 117.157249,273.966461 122.795052,267.096405 
	C132.575745,255.177963 134.498337,241.921829 134.035660,227.548904 
	C133.993698,226.245605 134.266739,224.932175 134.675171,223.319641 
	C139.101212,239.266281 135.134842,253.966324 125.629990,267.175842 
	C115.919556,280.671112 102.304733,287.971741 85.413918,290.021973 
	C83.025658,291.358948 80.970055,291.808014 78.370361,290.424652 
	C77.537689,290.130615 77.102608,290.088745 76.340752,290.079773 
	C75.293015,290.604279 74.522453,290.746216 73.371338,290.181885 
	C73.054001,289.921082 72.990082,289.966248 73.024902,289.952087 
	C72.333191,289.328644 71.437759,289.546600 70.310013,289.322388 
	C69.319008,289.108612 68.627068,289.010101 67.585602,288.899872 
	C67.025948,288.811340 66.815819,288.734558 66.760193,288.359863 
z"/>
<path fill="#72B574" opacity="1.000000" stroke="none" 
	d="
M117.901848,192.661285 
	C113.684608,193.719406 110.946465,190.239624 108.204491,188.237610 
	C93.129074,177.230499 76.953186,178.777542 60.448921,183.092392 
	C56.860870,184.030426 54.295353,187.608246 49.837273,187.772583 
	C60.067066,179.227051 72.526398,177.050201 85.563072,178.132080 
	C97.787247,179.146561 108.773003,183.669281 117.901848,192.661285 
z"/>
<path fill="#72B574" opacity="1.000000" stroke="none" 
	d="
M36.440918,199.631134 
	C37.763470,203.992767 33.327541,205.893005 31.916056,209.331726 
	C26.325565,222.951599 22.988632,236.351517 29.104303,250.914200 
	C30.614388,254.510025 32.347179,258.396912 32.902813,262.869934 
	C23.339008,248.883499 21.936604,233.375244 26.786554,217.142334 
	C28.690098,210.771149 31.312313,204.657089 36.440918,199.631134 
z"/>
<path fill="#72B574" opacity="1.000000" stroke="none" 
	d="
M48.622196,279.769653 
	C54.716988,280.562042 59.882099,283.732971 65.015686,287.396423 
	C62.911869,288.740631 61.261482,287.551178 59.275040,286.322205 
	C58.981712,286.089355 58.655083,285.900238 58.468063,285.875000 
	C55.019199,285.049194 51.910751,283.943054 49.274292,281.168884 
	C48.959911,280.581726 48.834709,280.284912 48.622196,279.769653 
z"/>
<path fill="#72B574" opacity="1.000000" stroke="none" 
	d="
M127.942245,204.658203 
	C122.701057,202.951187 120.559441,198.159225 118.050598,193.313629 
	C122.476608,195.738068 125.227745,199.994095 127.942245,204.658203 
z"/>
<path fill="#72B574" opacity="1.000000" stroke="none" 
	d="
M48.640804,187.996994 
	C46.484989,192.903030 42.173355,196.004211 37.337952,198.966614 
	C39.692596,194.253159 43.789310,190.940018 48.640804,187.996994 
z"/>
<path fill="#72B574" opacity="1.000000" stroke="none" 
	d="
M134.732391,220.657715 
	C130.440994,216.840775 130.295975,210.847275 127.984909,205.418610 
	C131.789917,209.428879 133.202759,214.893188 134.732391,220.657715 
z"/>
<path fill="#72B574" opacity="1.000000" stroke="none" 
	d="
M33.173603,264.312531 
	C37.046631,265.578186 40.580387,267.497742 40.912117,272.742188 
	C40.727661,273.233673 40.570274,273.347534 40.164528,273.308990 
	C39.916168,273.156616 39.927208,273.073242 39.886253,273.082764 
	C39.074303,272.170929 37.757885,271.759125 37.198273,270.221863 
	C35.734280,268.200623 34.460346,266.420105 33.173603,264.312531 
z"/>
<path fill="#DCF6DC" opacity="1.000000" stroke="none" 
	d="
M39.933884,273.541748 
	C39.916168,273.156616 40.400288,273.122314 40.642666,273.121033 
	C40.885044,273.119781 40.900990,273.093445 40.903046,273.091492 
	C43.091015,274.143158 45.069237,275.411316 45.898102,278.252319 
	C45.853817,279.781189 45.669811,281.325745 44.103760,280.267395 
	C41.933250,278.800568 39.304173,277.354675 39.933884,273.541748 
z"/>
<path fill="#72B574" opacity="1.000000" stroke="none" 
	d="
M46.242798,278.734924 
	C44.336281,276.969360 42.747009,275.329407 41.031425,273.389526 
	C44.673069,273.353241 47.200974,275.348877 48.605797,279.077515 
	C47.826118,279.251373 47.193081,279.055969 46.242798,278.734924 
z"/>
<path fill="#DEF9E4" opacity="1.000000" stroke="none" 
	d="
M78.037666,290.520752 
	C80.026329,290.107880 82.079903,290.043274 84.569748,290.038605 
	C83.045235,293.404694 80.843994,294.556702 78.037666,290.520752 
z"/>
<path fill="#DEF9E4" opacity="1.000000" stroke="none" 
	d="
M49.069561,281.259094 
	C51.963764,282.374268 54.880898,283.853790 58.039539,285.591522 
	C54.385334,286.251709 51.243977,285.013611 49.069561,281.259094 
z"/>
<path fill="#DEF9E4" opacity="1.000000" stroke="none" 
	d="
M59.059715,286.449677 
	C60.769478,286.624573 62.557243,287.159821 64.692947,287.729858 
	C65.452980,287.861511 65.865082,287.958344 66.595932,288.058594 
	C66.914680,288.061981 67.084671,288.471405 67.160370,288.679779 
	C64.363922,288.868408 61.235226,289.848419 59.059715,286.449677 
z"/>
<path fill="#DCF6DC" opacity="1.000000" stroke="none" 
	d="
M37.006550,270.344177 
	C37.895020,270.820496 38.781834,271.659851 39.756977,272.795776 
	C38.268806,273.047180 36.963394,272.679199 37.006550,270.344177 
z"/>
<path fill="#DEF9E4" opacity="1.000000" stroke="none" 
	d="
M73.086792,290.254150 
	C73.799644,289.919464 74.545288,289.917877 75.652451,290.014496 
	C75.373940,292.251801 74.435966,292.573608 73.086792,290.254150 
z"/>
<path fill="#DEF9E4" opacity="1.000000" stroke="none" 
	d="
M70.250717,289.429230 
	C70.868713,289.300171 71.726463,289.393280 72.821968,289.712158 
	C72.203316,289.842438 71.346901,289.746918 70.250717,289.429230 
z"/>
<path fill="#DBDBDB" opacity="1.000000" stroke="none" 
	d="
M11.438650,163.431702 
	C11.512593,163.383728 11.539313,163.576340 11.539313,163.576340 
	C11.539313,163.576340 11.364707,163.479691 11.438650,163.431702 
z"/>
<path fill="#F9F8F8" opacity="1.000000" stroke="none" 
	d="
M148.013000,151.643097 
	C147.411057,152.134476 146.867264,152.316086 146.153076,152.736023 
	C144.806625,153.150360 143.630585,153.326355 142.222595,153.777527 
	C100.639793,154.033371 59.288940,154.014008 17.469601,154.000900 
	C16.484940,153.094009 15.606858,152.998077 14.355612,152.979385 
	C13.078443,151.106644 11.340737,150.182846 9.309398,149.121887 
	C8.185448,146.814026 7.362577,144.634491 6.283060,142.229492 
	C6.014121,100.649239 6.001829,59.294456 5.985360,17.471422 
	C7.626362,14.567507 9.271540,12.131847 10.962246,9.352039 
	C13.120650,8.742541 14.843113,7.592833 16.804131,6.263109 
	C58.023796,5.999715 99.045982,6.009386 140.537674,6.028686 
	C146.685120,7.737079 151.432144,10.533832 153.696793,16.782322 
	C153.980804,58.347240 153.999161,99.701653 154.038452,141.523224 
	C152.569962,143.102417 153.102814,144.740875 152.968155,146.589493 
	C151.435349,147.037323 150.468857,147.816635 150.012604,149.630524 
	C149.087769,150.082474 148.325836,150.357788 148.013000,151.643097 
z"/>
<path fill="#DC4D3B" opacity="1.000000" stroke="none" 
	d="
M242.370728,251.012665 
	C241.901047,250.663681 241.709824,250.414459 241.262329,250.079529 
	C240.030334,246.980377 238.162155,244.226685 235.015976,244.241272 
	C230.964996,244.260040 229.992920,248.452789 227.941330,251.514679 
	C220.238480,256.458771 215.140564,263.747925 208.975677,269.870636 
	C206.614471,272.215668 204.365677,272.045593 201.832520,271.935577 
	C198.977264,271.811584 198.417923,269.049652 197.290680,267.169525 
	C196.473022,265.805756 197.165695,264.282257 198.342865,263.135468 
	C199.812149,261.704102 200.718338,259.966766 201.166016,257.601379 
	C206.725815,256.073883 208.741211,250.625671 212.906754,247.745834 
	C215.970810,245.627518 218.196335,242.316193 220.872406,239.612579 
	C226.292480,234.136703 226.292053,233.081238 220.518417,228.073868 
	C219.658585,227.328156 218.667633,226.733627 217.399353,225.996704 
	C216.913727,225.636932 216.713028,225.393356 216.255432,225.070435 
	C214.745422,222.554962 213.547302,220.064285 210.368073,219.015015 
	C209.897095,218.663879 209.702194,218.414124 209.241425,218.088104 
	C208.908951,217.663803 208.717804,217.411591 208.260788,217.080505 
	C207.953323,214.756088 206.153610,214.142395 204.324799,213.128265 
	C203.904434,212.103546 203.636581,211.333847 202.339890,211.024872 
	C201.010040,209.457916 199.991486,207.952469 198.970261,206.448837 
	C197.099747,203.694717 195.449692,200.633270 198.659790,198.039673 
	C201.544571,195.708908 204.838593,195.418808 208.101700,198.166412 
	C216.477768,205.219223 223.520599,213.609024 231.398926,221.160675 
	C233.857590,223.517395 236.202774,223.830429 238.340836,221.904617 
	C242.496384,218.161606 246.969681,214.647736 250.004761,209.408844 
	C254.078461,207.705383 256.349396,204.213470 258.971375,201.336777 
	C262.672729,197.275772 266.641296,195.201813 272.476440,197.088745 
	C274.676941,201.222656 274.019958,204.364304 270.574646,207.687302 
	C265.370148,212.706955 260.714813,218.281219 255.016113,222.832703 
	C253.717148,223.870178 252.145798,225.127274 251.896973,227.490784 
	C250.547409,228.572861 249.176010,229.190994 248.004303,230.074081 
	C244.946594,232.378586 245.118362,235.205948 247.565735,237.649353 
	C255.824280,245.894440 264.266968,253.954681 272.587036,262.138672 
	C275.960266,265.456726 273.059326,268.752533 271.465363,271.055450 
	C269.629028,273.708557 266.195801,273.421051 263.601105,271.042572 
	C262.048065,269.618988 261.122620,267.451324 258.367859,267.028564 
	C257.204468,266.073242 256.392761,265.167358 255.313416,264.112610 
	C253.482941,261.164978 251.743637,258.528015 248.385101,257.002655 
	C246.742004,254.550522 245.543564,252.064392 242.370728,251.012665 
z"/>
<path fill="#F7F9F7" opacity="1.000000" stroke="none" 
	d="
M57.893879,200.794586 
	C79.915260,187.881683 104.812912,194.438934 115.952164,215.813690 
	C125.371651,233.888443 119.341255,256.109497 101.875145,267.685211 
	C85.377342,278.619171 62.372299,274.838257 49.524956,259.581757 
	C36.394367,243.988968 36.316921,216.283478 57.893879,200.794586 
z"/>
<path fill="#62B462" opacity="1.000000" stroke="none" 
	d="
M38.058075,206.328888 
	C41.164585,206.653656 41.342636,208.439743 40.525444,210.549194 
	C40.151196,211.515274 39.036549,212.270218 38.162804,211.636200 
	C36.202068,210.213440 36.849018,208.286316 38.058075,206.328888 
z"/>
<path fill="#CE5C50" opacity="1.000000" stroke="none" 
	d="
M49.879829,59.355400 
	C47.353466,57.362015 45.076359,55.411263 43.043667,53.232479 
	C39.414692,49.342686 39.285305,44.434486 42.543137,41.161545 
	C45.658352,38.031879 50.935833,38.083160 54.650455,41.707661 
	C62.029903,48.908077 69.372948,56.160435 76.402954,63.697350 
	C79.325264,66.830383 81.140549,67.104973 84.170319,63.857365 
	C90.973984,56.564522 98.118645,49.587669 105.183960,42.541828 
	C109.595261,38.142693 114.940292,37.728695 118.352501,41.379120 
	C121.619614,44.874313 121.071724,49.939217 116.804741,54.228508 
	C109.768791,61.301231 102.790901,68.441101 95.516983,75.263115 
	C92.561546,78.034927 92.166214,79.706299 95.380829,82.659729 
	C102.356255,89.068428 108.923286,95.921501 115.660706,102.589432 
	C121.077332,107.950211 121.949905,113.100006 118.072334,116.869270 
	C114.253021,120.581902 109.153770,119.561378 103.773079,113.721558 
	C103.722137,113.182945 103.802841,112.956642 104.206360,112.572861 
	C106.542427,112.079124 108.014442,113.269775 109.545944,114.235878 
	C111.585472,115.522476 113.336685,115.047615 114.926125,113.458130 
	C116.568497,111.815704 116.708359,109.989754 115.512787,108.027542 
	C115.079292,107.316086 114.691513,106.499649 114.042198,106.028580 
	C106.735924,100.727951 102.444878,92.315491 94.767563,87.399353 
	C93.074593,86.315269 91.705917,84.860382 90.607498,83.156883 
	C88.014198,79.135025 88.278015,76.149467 91.944122,73.064560 
	C94.743301,70.709137 97.401878,68.201424 100.197868,65.848389 
	C101.874672,64.437233 103.333138,62.886074 104.024879,60.734955 
	C104.791138,58.352116 106.399490,56.785595 108.771133,55.997612 
	C112.529015,54.749050 113.463608,51.052029 115.310646,48.217113 
	C116.111259,46.988300 115.737213,45.259007 114.589119,44.054924 
	C113.447617,42.857765 111.918159,42.491451 110.461533,43.108253 
	C107.291985,44.450401 104.128967,46.718201 103.869743,49.994907 
	C103.577957,53.683212 102.346909,55.028652 98.982796,55.223415 
	C98.371033,55.258835 97.907013,55.959526 97.216324,56.683075 
	C96.818565,57.066475 96.651604,57.208076 96.213043,57.524036 
	C95.223953,58.096909 94.440636,58.391739 93.659210,59.242393 
	C93.167091,59.769146 92.867577,60.054142 92.315430,60.528172 
	C91.185944,61.324623 90.438271,62.039261 89.928970,63.381516 
	C89.657158,63.870377 89.534828,64.060715 89.185898,64.508469 
	C80.108749,72.176933 79.934395,72.343033 72.198006,64.221992 
	C66.354965,58.088448 59.239605,53.214546 54.370396,46.132381 
	C54.089775,45.724228 53.709953,45.353420 53.274048,45.122818 
	C50.875690,43.854076 48.364300,41.068043 45.701145,43.656769 
	C42.999649,46.282761 44.759998,49.106522 46.737904,51.632187 
	C48.257641,53.572796 50.132233,55.337177 50.601391,58.282928 
	C50.455921,58.860462 50.347569,59.077877 49.879829,59.355400 
z"/>
<path fill="#CE5C50" opacity="1.000000" stroke="none" 
	d="
M72.928101,96.875916 
	C67.338898,104.223907 60.618641,110.424850 54.070061,116.767197 
	C50.537235,120.188759 45.446991,119.791931 42.394749,116.589012 
	C39.309925,113.351891 39.324551,108.538048 42.859386,104.917015 
	C50.405865,97.186546 58.008766,89.501228 65.853111,82.076935 
	C68.541222,79.532768 68.202621,78.137291 65.741493,75.822083 
	C60.297226,70.700607 55.124424,65.290550 49.680672,59.706856 
	C49.520447,59.415512 49.781090,59.186268 49.911316,59.071533 
	C52.804642,57.140873 54.444466,59.180012 55.908089,60.900372 
	C59.687183,65.342361 63.754192,69.506706 68.300568,73.117805 
	C72.644890,76.568420 71.305771,81.159859 71.373947,85.490349 
	C71.389832,86.499046 70.429642,87.265793 69.354675,87.417374 
	C62.049332,88.447563 58.281219,94.005394 54.339088,99.251938 
	C53.423748,100.470161 52.687675,101.695816 51.221962,102.298248 
	C49.660648,102.939987 48.362988,103.969574 47.183594,105.163994 
	C45.367027,107.003716 43.788937,108.954590 44.913475,111.758858 
	C45.557026,113.363686 46.677059,114.780945 48.488937,114.873543 
	C51.318157,115.018120 53.100407,113.092903 54.375015,110.906845 
	C58.364269,104.064957 65.598099,101.046890 71.683594,96.288857 
	C72.261925,96.409912 72.482857,96.502548 72.928101,96.875916 
z"/>
<path fill="#CE5C50" opacity="1.000000" stroke="none" 
	d="
M96.985733,106.130554 
	C92.698402,102.550529 88.514275,98.971054 84.889297,94.894386 
	C81.635567,91.235222 78.992409,90.438240 75.949402,94.857765 
	C75.397835,95.658844 74.513435,96.230759 73.467560,97.032562 
	C73.152428,97.156647 72.995125,96.997589 72.916191,96.918343 
	C71.049255,94.276573 71.508575,91.710365 73.255157,89.475899 
	C75.039803,87.192734 77.690063,87.599007 80.175415,88.038376 
	C81.657867,88.300438 83.197441,88.779350 84.262558,89.785866 
	C89.045479,94.305626 94.182816,98.520393 97.581161,104.733002 
	C97.507263,105.399124 97.419800,105.656906 96.985733,106.130554 
z"/>
<path fill="#CE5C50" opacity="1.000000" stroke="none" 
	d="
M103.742081,113.292862 
	C101.223717,112.137871 99.796104,109.806259 97.712509,107.721588 
	C97.658813,107.187180 97.757065,106.945572 98.196747,106.509476 
	C102.754921,106.031898 104.020645,108.653473 104.191170,112.575745 
	C104.043808,112.943520 103.842735,113.176483 103.742081,113.292862 
z"/>
<path fill="#CE5C50" opacity="1.000000" stroke="none" 
	d="
M97.680115,107.312546 
	C97.235878,107.313019 96.986816,107.106171 96.726250,106.577347 
	C96.639137,106.346420 96.852592,106.145866 96.960052,106.046371 
	C97.516258,105.824524 97.871941,105.964577 98.090179,106.643829 
	C98.032669,106.957672 97.799667,107.196297 97.680115,107.312546 
z"/>
<path fill="#DE4C38" opacity="1.000000" stroke="none" 
	d="
M98.398483,106.980637 
	C97.904060,106.661186 97.714577,106.410767 97.265862,106.076653 
	C93.361275,99.723183 88.372681,94.428345 82.516907,90.517410 
	C76.299278,86.364784 73.255142,88.535316 72.894501,96.430611 
	C71.675491,97.004913 70.707436,97.383820 69.754822,98.230019 
	C66.500023,101.121185 64.052719,104.914703 59.442783,106.325195 
	C57.654964,106.872208 56.643890,109.201477 55.777180,111.350616 
	C54.599384,114.271149 51.804916,116.470779 48.571777,116.751938 
	C46.080948,116.968552 44.435249,114.509697 43.468342,112.507126 
	C41.982952,109.430725 43.175953,106.644958 45.867538,104.636971 
	C53.088959,99.249664 58.159527,91.640793 65.160370,86.030487 
	C65.411240,85.829437 65.585594,85.533028 65.836128,85.331413 
	C67.397652,84.074837 70.531906,88.711868 70.281281,85.214813 
	C69.986816,81.106102 71.829079,75.860054 65.961609,72.664734 
	C61.979717,70.496254 58.609592,66.601151 55.785366,62.663834 
	C54.530216,60.914001 53.291664,59.052105 50.404182,58.979645 
	C49.536758,56.184502 47.278812,54.502930 45.753788,52.421680 
	C42.693462,48.245148 42.211193,44.328850 44.791210,41.874580 
	C47.006500,39.767254 52.170151,41.298836 54.834202,44.690781 
	C60.984974,52.522125 68.684319,58.628700 75.772438,65.411079 
	C77.374794,66.944313 77.035904,72.045845 81.504265,68.959251 
	C83.796745,67.375679 86.012405,65.680923 88.608734,63.988564 
	C92.071579,63.380699 93.941414,60.767998 96.507637,59.293697 
	C97.142204,58.929131 96.540054,58.111195 96.077057,57.258667 
	C96.978691,54.876514 97.276772,51.915054 101.037041,53.689957 
	C102.388771,54.327995 102.877190,53.158554 102.567619,51.612499 
	C101.616386,46.861828 108.579781,40.315224 113.150108,41.547966 
	C116.850822,42.546154 118.900841,47.955093 116.143593,50.499256 
	C113.437729,52.996017 112.788315,57.992233 107.683250,57.797779 
	C107.106720,57.775818 106.132690,58.725353 105.945953,59.393032 
	C103.997162,66.361122 97.835922,69.461014 92.916580,73.656342 
	C88.595352,77.341583 89.029686,81.907852 94.825775,85.810440 
	C103.022446,91.329384 108.201729,99.849808 115.651672,106.091621 
	C118.439720,108.427536 119.190613,111.289177 116.271889,114.245041 
	C113.570778,116.980522 110.879730,118.014145 107.834595,114.595978 
	C107.124817,113.799263 105.790543,113.558884 104.393707,113.003021 
	C102.680794,110.610840 102.666931,107.079010 98.398483,106.980637 
z"/>
<path fill="#D35036" opacity="1.000000" stroke="none" 
	d="
M95.706680,56.962738 
	C97.222374,57.082710 98.723137,56.885593 98.888161,58.775753 
	C99.013222,60.208214 98.218758,61.009319 96.864746,60.966446 
	C93.743385,60.867622 93.125565,65.984024 89.172455,64.210571 
	C88.954689,63.940712 88.960098,63.473282 88.967133,63.239655 
	C89.862961,62.163723 90.720947,61.290573 91.782402,60.188217 
	C92.094330,59.653469 92.277710,59.400257 92.755692,59.100380 
	C93.519417,58.463261 94.074287,57.936039 94.809921,57.183441 
	C95.006760,56.974560 95.473320,56.962418 95.706680,56.962738 
z"/>
<path fill="#DE4C38" opacity="1.000000" stroke="none" 
	d="
M91.652794,60.009483 
	C91.939064,61.523052 91.268066,62.594604 89.317764,62.968086 
	C89.052551,61.466454 89.731041,60.402092 91.652794,60.009483 
z"/>
<path fill="#DE4C38" opacity="1.000000" stroke="none" 
	d="
M94.684853,57.020866 
	C94.918381,57.888771 94.674286,58.691471 93.293480,58.953686 
	C93.067245,58.087139 93.326187,57.295723 94.684853,57.020866 
z"/>
</svg>